<svg xmlns="http://www.w3.org/2000/svg" xmlns:xlink="http://www.w3.org/1999/xlink" width="150" zoomAndPan="magnify"
  viewBox="0 0 112.5 112.499997" height="150" preserveAspectRatio="xMidYMid meet" version="1.0">
  <defs>
    <clipPath id="id1">
      <path d="M 102 38 L 111.214844 38 L 111.214844 48 L 102 48 Z M 102 38 " clip-rule="nonzero" />
    </clipPath>
    <clipPath id="id2">
      <path d="M 38 0.558594 L 47 0.558594 L 47 10 L 38 10 Z M 38 0.558594 " clip-rule="nonzero" />
    </clipPath>
    <clipPath id="id3">
      <path d="M 65 103 L 75 103 L 75 112.003906 L 65 112.003906 Z M 65 103 " clip-rule="nonzero" />
    </clipPath>
  </defs>
  <path fill="#ffffff"
    d="M 54.757812 80.917969 C 47.992188 80.917969 36.359375 80.433594 34.492188 77.203125 C 32.871094 74.398438 32.238281 63.648438 32.1875 55.296875 C 32.15625 49.746094 32.335938 36.601562 34.699219 34.453125 C 37.265625 32.121094 53.078125 32.003906 56.222656 32.003906 C 60.480469 32.003906 74.582031 32.175781 77.253906 34.425781 C 79.800781 36.566406 80.046875 48.632812 79.964844 55.636719 C 79.882812 62.429688 79.265625 74.628906 77.449219 77.273438 C 75.015625 80.816406 56.824219 80.917969 54.757812 80.917969 Z M 56.222656 34.167969 C 43.808594 34.167969 37.007812 35.273438 36.140625 36.0625 C 35.40625 36.757812 34.261719 42.605469 34.339844 55.328125 C 34.402344 65.300781 35.265625 74.234375 36.351562 76.113281 C 36.941406 77.132812 42.460938 78.75 54.757812 78.75 C 67.03125 78.75 74.917969 77.148438 75.679688 76.039062 C 76.625 74.664062 77.683594 66.644531 77.8125 55.609375 C 77.960938 42.699219 76.703125 36.785156 75.875 36.085938 C 74.765625 35.15625 67.503906 34.167969 56.222656 34.167969 Z M 56.222656 34.167969 "
    fill-opacity="1" fill-rule="nonzero" />
  <path fill="#ffffff"
    d="M 92.226562 64.84375 L 78.898438 64.84375 C 78.304688 64.84375 77.824219 64.359375 77.824219 63.761719 C 77.824219 63.164062 78.304688 62.679688 78.898438 62.679688 L 92.226562 62.679688 C 92.824219 62.679688 93.304688 63.164062 93.304688 63.761719 C 93.304688 64.359375 92.824219 64.84375 92.226562 64.84375 Z M 92.226562 64.84375 "
    fill-opacity="1" fill-rule="nonzero" />
  <path fill="#ffffff"
    d="M 92.226562 43.511719 L 78.898438 43.511719 C 78.304688 43.511719 77.824219 43.027344 77.824219 42.429688 C 77.824219 41.828125 78.304688 41.34375 78.898438 41.34375 L 92.226562 41.34375 C 92.824219 41.34375 93.304688 41.828125 93.304688 42.429688 C 93.304688 43.027344 92.824219 43.511719 92.226562 43.511719 Z M 92.226562 43.511719 "
    fill-opacity="1" fill-rule="nonzero" />
  <path fill="#ffffff"
    d="M 87.074219 50.738281 L 79.667969 50.738281 C 79.074219 50.738281 78.589844 50.253906 78.589844 49.652344 C 78.589844 49.054688 79.074219 48.570312 79.667969 48.570312 L 87.074219 48.570312 C 87.667969 48.570312 88.152344 49.054688 88.152344 49.652344 C 88.152344 50.253906 87.667969 50.738281 87.074219 50.738281 Z M 87.074219 50.738281 "
    fill-opacity="1" fill-rule="nonzero" />
  <path fill="#ffffff"
    d="M 93.746094 58.390625 L 78.898438 58.390625 C 78.304688 58.390625 77.824219 57.902344 77.824219 57.304688 C 77.824219 56.707031 78.304688 56.222656 78.898438 56.222656 L 92.863281 56.222656 L 103.929688 45.269531 C 104.351562 44.847656 105.035156 44.855469 105.453125 45.28125 C 105.867188 45.707031 105.863281 46.394531 105.4375 46.8125 Z M 93.746094 58.390625 "
    fill-opacity="1" fill-rule="nonzero" />
  <path fill="#ffffff"
    d="M 95.613281 71.125 L 78.898438 71.125 C 78.304688 71.125 77.824219 70.640625 77.824219 70.042969 C 77.824219 69.445312 78.304688 68.960938 78.898438 68.960938 L 95.613281 68.960938 C 96.207031 68.960938 96.6875 69.445312 96.6875 70.042969 C 96.6875 70.640625 96.207031 71.125 95.613281 71.125 Z M 95.613281 71.125 "
    fill-opacity="1" fill-rule="nonzero" />
  <path fill="#ffffff"
    d="M 98.992188 74.53125 C 96.535156 74.53125 94.535156 72.515625 94.535156 70.042969 C 94.535156 67.570312 96.535156 65.554688 98.992188 65.554688 C 101.453125 65.554688 103.453125 67.570312 103.453125 70.042969 C 103.453125 72.515625 101.453125 74.53125 98.992188 74.53125 Z M 98.992188 67.722656 C 97.722656 67.722656 96.6875 68.761719 96.6875 70.042969 C 96.6875 71.324219 97.722656 72.363281 98.992188 72.363281 C 100.265625 72.363281 101.300781 71.324219 101.300781 70.042969 C 101.300781 68.761719 100.265625 67.722656 98.992188 67.722656 Z M 98.992188 67.722656 "
    fill-opacity="1" fill-rule="nonzero" />
  <g clip-path="url(#id1)">
    <path fill="#ffffff"
      d="M 106.707031 47.195312 C 104.25 47.195312 102.25 45.179688 102.25 42.707031 C 102.25 40.234375 104.25 38.21875 106.707031 38.21875 C 109.167969 38.21875 111.167969 40.234375 111.167969 42.707031 C 111.167969 45.183594 109.167969 47.195312 106.707031 47.195312 Z M 106.707031 40.386719 C 105.4375 40.386719 104.402344 41.429688 104.402344 42.707031 C 104.402344 43.988281 105.4375 45.027344 106.707031 45.027344 C 107.980469 45.027344 109.015625 43.988281 109.015625 42.707031 C 109.015625 41.429688 107.980469 40.386719 106.707031 40.386719 Z M 106.707031 40.386719 "
      fill-opacity="1" fill-rule="nonzero" />
  </g>
  <path fill="#ffffff"
    d="M 63.421875 34.128906 C 62.824219 34.128906 62.34375 33.644531 62.34375 33.046875 L 62.34375 19.632812 C 62.34375 19.035156 62.824219 18.550781 63.421875 18.550781 C 64.015625 18.550781 64.496094 19.035156 64.496094 19.632812 L 64.496094 33.046875 C 64.496094 33.644531 64.015625 34.128906 63.421875 34.128906 Z M 63.421875 34.128906 "
    fill-opacity="1" fill-rule="nonzero" />
  <path fill="#ffffff"
    d="M 42.21875 34.128906 C 41.625 34.128906 41.144531 33.644531 41.144531 33.046875 L 41.144531 19.632812 C 41.144531 19.035156 41.625 18.550781 42.21875 18.550781 C 42.8125 18.550781 43.296875 19.035156 43.296875 19.632812 L 43.296875 33.046875 C 43.296875 33.644531 42.8125 34.128906 42.21875 34.128906 Z M 42.21875 34.128906 "
    fill-opacity="1" fill-rule="nonzero" />
  <path fill="#ffffff"
    d="M 49.402344 33.355469 C 48.804688 33.355469 48.324219 32.871094 48.324219 32.273438 L 48.324219 24.820312 C 48.324219 24.222656 48.804688 23.738281 49.402344 23.738281 C 49.996094 23.738281 50.476562 24.222656 50.476562 24.820312 L 50.476562 32.273438 C 50.476562 32.871094 49.996094 33.355469 49.402344 33.355469 Z M 49.402344 33.355469 "
    fill-opacity="1" fill-rule="nonzero" />
  <path fill="#ffffff"
    d="M 57.003906 34.128906 C 56.410156 34.128906 55.929688 33.644531 55.929688 33.046875 L 55.929688 18.996094 L 45.042969 7.859375 C 44.625 7.433594 44.632812 6.75 45.054688 6.328125 C 45.480469 5.910156 46.160156 5.914062 46.578125 6.339844 L 58.082031 18.109375 L 58.082031 33.046875 C 58.082031 33.644531 57.597656 34.128906 57.003906 34.128906 Z M 57.003906 34.128906 "
    fill-opacity="1" fill-rule="nonzero" />
  <path fill="#ffffff"
    d="M 69.664062 34.128906 C 69.070312 34.128906 68.585938 33.644531 68.585938 33.046875 L 68.585938 16.230469 C 68.585938 15.632812 69.070312 15.148438 69.664062 15.148438 C 70.257812 15.148438 70.738281 15.632812 70.738281 16.230469 L 70.738281 33.046875 C 70.738281 33.644531 70.257812 34.128906 69.664062 34.128906 Z M 69.664062 34.128906 "
    fill-opacity="1" fill-rule="nonzero" />
  <path fill="#ffffff"
    d="M 69.664062 17.3125 C 67.203125 17.3125 65.203125 15.300781 65.203125 12.828125 C 65.203125 10.351562 67.203125 8.339844 69.664062 8.339844 C 72.121094 8.339844 74.121094 10.351562 74.121094 12.828125 C 74.121094 15.300781 72.121094 17.3125 69.664062 17.3125 Z M 69.664062 10.503906 C 68.390625 10.503906 67.355469 11.546875 67.355469 12.828125 C 67.355469 14.105469 68.390625 15.148438 69.664062 15.148438 C 70.933594 15.148438 71.96875 14.105469 71.96875 12.828125 C 71.96875 11.546875 70.933594 10.503906 69.664062 10.503906 Z M 69.664062 10.503906 "
    fill-opacity="1" fill-rule="nonzero" />
  <g clip-path="url(#id2)">
    <path fill="#ffffff"
      d="M 42.496094 9.550781 C 40.039062 9.550781 38.039062 7.539062 38.039062 5.066406 C 38.039062 2.589844 40.039062 0.578125 42.496094 0.578125 C 44.957031 0.578125 46.957031 2.589844 46.957031 5.066406 C 46.957031 7.539062 44.957031 9.550781 42.496094 9.550781 Z M 42.496094 2.742188 C 41.226562 2.742188 40.191406 3.785156 40.191406 5.066406 C 40.191406 6.34375 41.226562 7.386719 42.496094 7.386719 C 43.769531 7.386719 44.804688 6.34375 44.804688 5.066406 C 44.804688 3.785156 43.769531 2.742188 42.496094 2.742188 Z M 42.496094 2.742188 "
      fill-opacity="1" fill-rule="nonzero" />
  </g>
  <path fill="#ffffff"
    d="M 33.28125 50.234375 L 19.949219 50.234375 C 19.355469 50.234375 18.875 49.75 18.875 49.152344 C 18.875 48.550781 19.355469 48.066406 19.949219 48.066406 L 33.28125 48.066406 C 33.875 48.066406 34.355469 48.550781 34.355469 49.152344 C 34.355469 49.75 33.875 50.234375 33.28125 50.234375 Z M 33.28125 50.234375 "
    fill-opacity="1" fill-rule="nonzero" />
  <path fill="#ffffff"
    d="M 33.28125 71.566406 L 19.949219 71.566406 C 19.355469 71.566406 18.875 71.082031 18.875 70.484375 C 18.875 69.886719 19.355469 69.402344 19.949219 69.402344 L 33.28125 69.402344 C 33.875 69.402344 34.355469 69.886719 34.355469 70.484375 C 34.355469 71.082031 33.875 71.566406 33.28125 71.566406 Z M 33.28125 71.566406 "
    fill-opacity="1" fill-rule="nonzero" />
  <path fill="#ffffff"
    d="M 32.511719 64.34375 L 25.105469 64.34375 C 24.507812 64.34375 24.027344 63.855469 24.027344 63.257812 C 24.027344 62.660156 24.507812 62.175781 25.105469 62.175781 L 32.511719 62.175781 C 33.105469 62.175781 33.585938 62.660156 33.585938 63.257812 C 33.585938 63.855469 33.105469 64.34375 32.511719 64.34375 Z M 32.511719 64.34375 "
    fill-opacity="1" fill-rule="nonzero" />
  <path fill="#ffffff"
    d="M 7.496094 67.953125 C 7.21875 67.953125 6.9375 67.847656 6.726562 67.632812 C 6.3125 67.203125 6.316406 66.519531 6.742188 66.097656 L 18.433594 54.523438 L 33.28125 54.523438 C 33.875 54.523438 34.355469 55.007812 34.355469 55.605469 C 34.355469 56.207031 33.875 56.691406 33.28125 56.691406 L 19.316406 56.691406 L 8.25 67.644531 C 8.039062 67.851562 7.769531 67.953125 7.496094 67.953125 Z M 7.496094 67.953125 "
    fill-opacity="1" fill-rule="nonzero" />
  <path fill="#ffffff"
    d="M 33.28125 43.953125 L 16.566406 43.953125 C 15.972656 43.953125 15.492188 43.46875 15.492188 42.871094 C 15.492188 42.269531 15.972656 41.785156 16.566406 41.785156 L 33.28125 41.785156 C 33.875 41.785156 34.355469 42.269531 34.355469 42.871094 C 34.355469 43.46875 33.875 43.953125 33.28125 43.953125 Z M 33.28125 43.953125 "
    fill-opacity="1" fill-rule="nonzero" />
  <path fill="#ffffff"
    d="M 13.183594 47.355469 C 10.726562 47.355469 8.726562 45.34375 8.726562 42.871094 C 8.726562 40.394531 10.726562 38.382812 13.183594 38.382812 C 15.644531 38.382812 17.644531 40.394531 17.644531 42.871094 C 17.644531 45.34375 15.644531 47.355469 13.183594 47.355469 Z M 13.183594 40.550781 C 11.914062 40.550781 10.878906 41.589844 10.878906 42.871094 C 10.878906 44.148438 11.914062 45.191406 13.183594 45.191406 C 14.457031 45.191406 15.492188 44.148438 15.492188 42.871094 C 15.492188 41.589844 14.457031 40.550781 13.183594 40.550781 Z M 13.183594 40.550781 "
    fill-opacity="1" fill-rule="nonzero" />
  <path fill="#ffffff"
    d="M 5.472656 74.691406 C 3.011719 74.691406 1.011719 72.679688 1.011719 70.203125 C 1.011719 67.730469 3.011719 65.71875 5.472656 65.71875 C 7.929688 65.71875 9.929688 67.730469 9.929688 70.203125 C 9.929688 72.679688 7.929688 74.691406 5.472656 74.691406 Z M 5.472656 67.882812 C 4.199219 67.882812 3.164062 68.925781 3.164062 70.203125 C 3.164062 71.484375 4.199219 72.527344 5.472656 72.527344 C 6.742188 72.527344 7.777344 71.484375 7.777344 70.203125 C 7.777344 68.925781 6.742188 67.882812 5.472656 67.882812 Z M 5.472656 67.882812 "
    fill-opacity="1" fill-rule="nonzero" />
  <path fill="#ffffff"
    d="M 48.757812 94.359375 C 48.164062 94.359375 47.683594 93.875 47.683594 93.277344 L 47.683594 79.863281 C 47.683594 79.265625 48.164062 78.78125 48.757812 78.78125 C 49.351562 78.78125 49.835938 79.265625 49.835938 79.863281 L 49.835938 93.277344 C 49.835938 93.875 49.351562 94.359375 48.757812 94.359375 Z M 48.757812 94.359375 "
    fill-opacity="1" fill-rule="nonzero" />
  <path fill="#ffffff"
    d="M 69.960938 94.359375 C 69.363281 94.359375 68.882812 93.875 68.882812 93.277344 L 68.882812 79.863281 C 68.882812 79.265625 69.363281 78.78125 69.960938 78.78125 C 70.554688 78.78125 71.035156 79.265625 71.035156 79.863281 L 71.035156 93.277344 C 71.035156 93.875 70.554688 94.359375 69.960938 94.359375 Z M 69.960938 94.359375 "
    fill-opacity="1" fill-rule="nonzero" />
  <path fill="#ffffff"
    d="M 62.777344 89.175781 C 62.183594 89.175781 61.703125 88.691406 61.703125 88.09375 L 61.703125 80.640625 C 61.703125 80.039062 62.183594 79.554688 62.777344 79.554688 C 63.375 79.554688 63.855469 80.039062 63.855469 80.640625 L 63.855469 88.09375 C 63.855469 88.691406 63.375 89.175781 62.777344 89.175781 Z M 62.777344 89.175781 "
    fill-opacity="1" fill-rule="nonzero" />
  <path fill="#ffffff"
    d="M 66.371094 106.894531 C 66.089844 106.894531 65.8125 106.785156 65.601562 106.570312 L 54.097656 94.804688 L 54.097656 79.867188 C 54.097656 79.265625 54.578125 78.78125 55.175781 78.78125 C 55.769531 78.78125 56.25 79.265625 56.25 79.867188 L 56.25 93.917969 L 67.136719 105.050781 C 67.554688 105.476562 67.546875 106.164062 67.125 106.582031 C 66.914062 106.789062 66.640625 106.894531 66.371094 106.894531 Z M 66.371094 106.894531 "
    fill-opacity="1" fill-rule="nonzero" />
  <path fill="#ffffff"
    d="M 42.515625 97.765625 C 41.921875 97.765625 41.441406 97.28125 41.441406 96.683594 L 41.441406 79.863281 C 41.441406 79.265625 41.921875 78.78125 42.515625 78.78125 C 43.109375 78.78125 43.59375 79.265625 43.59375 79.863281 L 43.59375 96.683594 C 43.59375 97.28125 43.109375 97.765625 42.515625 97.765625 Z M 42.515625 97.765625 "
    fill-opacity="1" fill-rule="nonzero" />
  <path fill="#ffffff"
    d="M 42.515625 104.574219 C 40.058594 104.574219 38.058594 102.558594 38.058594 100.085938 C 38.058594 97.613281 40.058594 95.597656 42.515625 95.597656 C 44.976562 95.597656 46.976562 97.613281 46.976562 100.085938 C 46.976562 102.558594 44.976562 104.574219 42.515625 104.574219 Z M 42.515625 97.765625 C 41.246094 97.765625 40.210938 98.804688 40.210938 100.085938 C 40.210938 101.367188 41.246094 102.40625 42.515625 102.40625 C 43.789062 102.40625 44.824219 101.367188 44.824219 100.085938 C 44.824219 98.804688 43.789062 97.765625 42.515625 97.765625 Z M 42.515625 97.765625 "
    fill-opacity="1" fill-rule="nonzero" />
  <g clip-path="url(#id3)">
    <path fill="#ffffff"
      d="M 69.683594 112.335938 C 67.222656 112.335938 65.222656 110.324219 65.222656 107.847656 C 65.222656 105.375 67.222656 103.359375 69.683594 103.359375 C 72.140625 103.359375 74.140625 105.375 74.140625 107.847656 C 74.140625 110.324219 72.140625 112.335938 69.683594 112.335938 Z M 69.683594 105.527344 C 68.410156 105.527344 67.375 106.570312 67.375 107.847656 C 67.375 109.128906 68.410156 110.167969 69.683594 110.167969 C 70.953125 110.167969 71.988281 109.128906 71.988281 107.847656 C 71.988281 106.570312 70.953125 105.527344 69.683594 105.527344 Z M 69.683594 105.527344 "
      fill-opacity="1" fill-rule="nonzero" />
  </g>
  <path fill="#ffffff"
    d="M 55.5625 60.929688 C 53.050781 60.929688 51.007812 58.875 51.007812 56.347656 C 51.007812 53.816406 53.050781 51.761719 55.5625 51.761719 C 58.074219 51.761719 60.117188 53.816406 60.117188 56.347656 C 60.117188 58.875 58.074219 60.929688 55.5625 60.929688 Z M 55.5625 53.925781 C 54.238281 53.925781 53.160156 55.011719 53.160156 56.347656 C 53.160156 57.679688 54.238281 58.765625 55.5625 58.765625 C 56.886719 58.765625 57.964844 57.679688 57.964844 56.347656 C 57.964844 55.011719 56.886719 53.925781 55.5625 53.925781 Z M 55.5625 53.925781 "
    fill-opacity="1" fill-rule="nonzero" />
  <path fill="#ffffff"
    d="M 56.167969 70.34375 C 55.585938 70.34375 54.160156 70.261719 53.503906 69.503906 C 53.300781 69.273438 52.941406 68.859375 52.722656 66.402344 C 52.273438 66.273438 51.828125 66.113281 51.398438 65.921875 C 49.652344 67.324219 49.066406 67.421875 48.804688 67.46875 C 48.71875 67.480469 48.625 67.488281 48.535156 67.488281 C 47.589844 67.488281 46.6875 66.667969 46.230469 66.179688 C 45.777344 65.695312 45.03125 64.746094 45.089844 63.847656 C 45.117188 63.457031 45.257812 62.914062 46.472656 61.40625 C 46.183594 60.882812 45.941406 60.339844 45.746094 59.773438 C 44.078125 59.558594 43.507812 59.289062 43.203125 59.070312 C 42.648438 58.675781 42.34375 57.929688 42.289062 56.859375 C 42.269531 56.496094 42.226562 54.648438 43.117188 53.867188 C 43.402344 53.617188 43.863281 53.339844 45.675781 53.136719 C 45.867188 52.539062 46.109375 51.957031 46.410156 51.402344 C 45.410156 50.097656 45.203125 49.507812 45.140625 49.140625 C 45.035156 48.515625 45.296875 47.820312 45.921875 47.078125 C 46.445312 46.453125 47.601562 45.398438 48.628906 45.398438 C 48.667969 45.398438 48.703125 45.402344 48.734375 45.402344 C 49.128906 45.429688 49.683594 45.574219 51.226562 46.84375 C 51.722656 46.617188 52.234375 46.425781 52.761719 46.277344 C 53.007812 44.179688 53.339844 43.714844 53.488281 43.503906 C 54.027344 42.738281 55.148438 42.578125 55.992188 42.578125 C 56.574219 42.578125 58 42.660156 58.65625 43.417969 C 58.863281 43.652344 59.230469 44.078125 59.445312 46.652344 C 59.820312 46.804688 60.1875 46.976562 60.542969 47.171875 C 62.453125 45.609375 63.097656 45.496094 63.351562 45.453125 C 63.441406 45.4375 63.535156 45.429688 63.625 45.429688 C 64.570312 45.429688 65.472656 46.25 65.929688 46.738281 C 66.378906 47.226562 67.128906 48.175781 67.070312 49.070312 C 67.046875 49.382812 67.003906 50.007812 65.097656 52.222656 C 65.210938 52.5 65.320312 52.785156 65.410156 53.03125 C 66.65625 53.140625 68.285156 53.371094 68.957031 53.851562 C 69.511719 54.246094 69.816406 54.988281 69.871094 56.0625 C 69.886719 56.425781 69.933594 58.273438 69.042969 59.054688 C 68.804688 59.265625 68.324219 59.683594 65.335938 59.890625 C 65.242188 60.152344 65.144531 60.414062 65.058594 60.640625 C 65.867188 61.605469 66.878906 62.949219 67.019531 63.777344 C 67.125 64.40625 66.863281 65.101562 66.238281 65.84375 C 65.714844 66.464844 64.558594 67.519531 63.527344 67.519531 C 63.492188 67.519531 63.457031 67.519531 63.421875 67.515625 C 63.117188 67.496094 62.511719 67.457031 60.375 65.609375 C 60.078125 65.765625 59.777344 65.90625 59.464844 66.035156 C 59.21875 68.644531 58.8125 69.21875 58.671875 69.417969 C 58.132812 70.183594 57.011719 70.34375 56.167969 70.34375 Z M 55.144531 68.042969 C 55.332031 68.105469 55.707031 68.179688 56.167969 68.179688 C 56.570312 68.179688 56.828125 68.125 56.949219 68.082031 C 57.082031 67.726562 57.269531 66.644531 57.378906 65.175781 L 57.429688 64.449219 L 58.117188 64.226562 C 58.753906 64.015625 59.367188 63.726562 59.9375 63.367188 L 60.625 62.933594 L 61.226562 63.476562 C 62.433594 64.566406 63.226562 65.136719 63.5625 65.320312 C 63.972656 65.121094 64.691406 64.433594 64.867188 64.0625 C 64.679688 63.648438 63.851562 62.527344 63.007812 61.566406 L 62.5625 61.058594 L 62.820312 60.433594 C 62.824219 60.421875 63.308594 59.246094 63.5 58.5625 L 63.707031 57.808594 L 64.484375 57.769531 C 66.027344 57.691406 67.167969 57.53125 67.59375 57.402344 C 67.75 56.972656 67.773438 55.96875 67.632812 55.585938 C 67.210938 55.425781 65.839844 55.21875 64.566406 55.140625 L 63.84375 55.097656 L 63.613281 54.40625 C 63.492188 54.054688 63.128906 53.023438 62.875 52.53125 L 62.53125 51.867188 L 63.027344 51.308594 C 64.125 50.082031 64.703125 49.273438 64.882812 48.933594 C 64.6875 48.519531 64.003906 47.796875 63.636719 47.621094 C 63.34375 47.757812 62.554688 48.28125 61.347656 49.320312 L 60.734375 49.847656 L 60.058594 49.40625 C 59.449219 49 58.785156 48.683594 58.09375 48.460938 L 57.398438 48.234375 L 57.351562 47.496094 C 57.253906 45.992188 57.109375 45.191406 57.015625 44.878906 C 56.828125 44.816406 56.453125 44.742188 55.992188 44.742188 C 55.59375 44.742188 55.335938 44.796875 55.210938 44.835938 C 55.121094 45.089844 54.953125 45.824219 54.824219 47.253906 L 54.75 48.058594 L 53.960938 48.214844 C 53.132812 48.378906 52.335938 48.671875 51.597656 49.082031 L 50.945312 49.441406 L 50.378906 48.953125 C 49.328125 48.046875 48.808594 47.714844 48.597656 47.601562 C 48.1875 47.800781 47.472656 48.484375 47.296875 48.851562 C 47.382812 49.03125 47.667969 49.542969 48.542969 50.628906 L 49.035156 51.234375 L 48.617188 51.894531 C 48.125 52.667969 47.769531 53.511719 47.558594 54.398438 L 47.375 55.160156 L 46.601562 55.222656 C 45.339844 55.328125 44.785156 55.453125 44.566406 55.519531 C 44.414062 55.953125 44.390625 56.945312 44.527344 57.332031 C 44.757812 57.414062 45.414062 57.570312 46.679688 57.699219 L 47.417969 57.777344 L 47.609375 58.496094 C 47.835938 59.355469 48.199219 60.167969 48.691406 60.910156 L 49.136719 61.589844 L 48.609375 62.210938 C 47.714844 63.261719 47.390625 63.777344 47.277344 63.988281 C 47.472656 64.402344 48.15625 65.125 48.523438 65.300781 C 48.765625 65.183594 49.421875 64.773438 50.558594 63.816406 L 51.109375 63.351562 L 51.746094 63.6875 C 52.441406 64.058594 53.183594 64.320312 53.949219 64.472656 L 54.757812 64.636719 L 54.8125 65.464844 C 54.90625 66.945312 55.050781 67.730469 55.144531 68.042969 Z M 55.144531 68.042969 "
    fill-opacity="1" fill-rule="nonzero" />
</svg>